<svg xmlns="http://www.w3.org/2000/svg" width="64" height="72.197" viewBox="0 0 64 72.197">
  <path id="email" d="M1.633,31.213A5.921,5.921,0,0,0,.32,34.931V66.638A5.941,5.941,0,0,0,6.241,72.58h.808l.141.141.141-.141H57.308l.141.141.141-.141H58.4a5.941,5.941,0,0,0,5.921-5.941V34.931a5.921,5.921,0,0,0-1.314-3.718,1.535,1.535,0,0,0-.465-1.132L33.441.961a1.657,1.657,0,0,0-2.243,0L2.179,30.081a1.536,1.536,0,0,0-.546,1.132ZM9.979,69.932,24.853,55.059,31.2,61.424a1.576,1.576,0,0,0,2.243,0l6.345-6.365L54.66,69.932ZM14.749,41.4V30.384H50.416V40.933L32.229,59.02Zm46.944-6.467V66.638a3.293,3.293,0,0,1-2.627,3.233L42.01,52.836,61.349,33.5A3.473,3.473,0,0,1,61.693,34.931ZM32.33,4.316,59.207,31.193l-6.891,6.891v-8.71a.95.95,0,0,0-.95-.95H13.8a.95.95,0,0,0-.95.95v9.235L5.432,31.193ZM2.947,34.931A3.476,3.476,0,0,1,3.29,33.5L22.63,52.836,5.594,69.872a3.294,3.294,0,0,1-2.647-3.233Z" transform="translate(-0.32 -0.524)" fill="#1d6ccd"/>
</svg>
