<svg xmlns="http://www.w3.org/2000/svg" width="16" height="16" viewBox="0 0 16 16">
  <path id="Vector-3" d="M8,0a8.008,8.008,0,1,0,5.652,2.347A8,8,0,0,0,8,0Zm.638,14.576H8.526V10.809c.87,0,1.73-.042,2.463-.087A9.971,9.971,0,0,1,8.642,14.576Zm-1.277,0a9.971,9.971,0,0,1-2.346-3.85c.737.048,1.593.083,2.463.091v3.767ZM1.4,8a6.69,6.69,0,0,1,.129-1.295c.381-.066,1.114-.179,2.146-.282A9.466,9.466,0,0,0,3.538,8a9.78,9.78,0,0,0,.127,1.569c-1.019-.1-1.756-.211-2.14-.278A6.645,6.645,0,0,1,1.4,8ZM4.581,8a8.353,8.353,0,0,1,.171-1.667c.805-.054,1.687-.1,2.73-.109v3.55c-1.043-.012-1.935-.054-2.738-.113A8.576,8.576,0,0,1,4.581,8ZM8.634,1.422A10.5,10.5,0,0,1,10.976,5.27c-.735-.044-1.581-.079-2.451-.089V1.414S8.6,1.418,8.634,1.422Zm-1.152,0V5.189c-.87.01-1.718.04-2.447.087A10.606,10.606,0,0,1,7.374,1.43Zm1.043,8.36V6.232c1.043.012,1.931.056,2.732.115a8.3,8.3,0,0,1,.169,1.661,8.618,8.618,0,0,1-.163,1.665c-.8.048-1.7.091-2.738.1Zm3.814-3.345c1.019.1,1.76.213,2.144.278a6.559,6.559,0,0,1,0,2.587c-.381.064-1.112.179-2.14.28a9.867,9.867,0,0,0,.127-1.575,9.608,9.608,0,0,0-.131-1.579Zm1.812-.832c-.493-.072-1.192-.163-2.062-.242a11.141,11.141,0,0,0-1.764-3.54A6.645,6.645,0,0,1,14.16,5.6ZM5.666,1.824A11.117,11.117,0,0,0,3.9,5.36c-.878.077-1.571.167-2.062.242A6.645,6.645,0,0,1,5.674,1.816ZM1.84,10.408c.489.075,1.182.163,2.046.242a10.747,10.747,0,0,0,1.738,3.526A6.645,6.645,0,0,1,1.85,10.4Zm8.524,3.767A10.7,10.7,0,0,0,12.1,10.654c.872-.077,1.561-.167,2.048-.24a6.655,6.655,0,0,1-3.773,3.753Z" fill="#111"/>
</svg>
