<svg xmlns="http://www.w3.org/2000/svg" width="36" height="36" viewBox="0 0 36 36">
  <path id="entypo-social_linkedin-with-circle" d="M18.4.4a18,18,0,1,0,18,18A18,18,0,0,0,18.4.4ZM13.994,25.861H10.349V14.131h3.645Zm-1.845-13.17A1.825,1.825,0,1,1,12.2,9.046a1.826,1.826,0,1,1-.047,3.645Zm15.158,13.17H23.662v-6.5c0-1.513-.529-2.541-1.847-2.541a2,2,0,0,0-1.869,1.365,2.58,2.58,0,0,0-.122.911v6.763H16.177V17.871c0-1.464-.047-2.689-.1-3.743h3.167l.167,1.629h.073a4.219,4.219,0,0,1,3.622-1.894c2.4,0,4.2,1.607,4.2,5.061v6.936Z" transform="translate(-0.4 -0.4)" fill="#8a8a8a"/>
</svg>
