<svg xmlns="http://www.w3.org/2000/svg" width="16" height="16.003" viewBox="0 0 16 16.003">
  <path id="Vector-2" d="M15.558,2.044a.267.267,0,0,0-.035-.033L13.612.348a1.3,1.3,0,0,0-1.029-.34,1.507,1.507,0,0,0-.92.422.523.523,0,0,0-.054.062L9.732,2.861a1.348,1.348,0,0,0,.033,1.867.892.892,0,0,0,.109.089l.961.64c-.078.331-.578,1.3-2.33,3.049s-2.717,2.254-3.051,2.33l-.638-.959a.76.76,0,0,0-.089-.109,1.346,1.346,0,0,0-1.867-.033L.491,11.61l-.062.056a1.414,1.414,0,0,0-.082,1.943l1.663,1.91.033.037A1.885,1.885,0,0,0,3.4,16a8.129,8.129,0,0,0,2.688-.618,16.674,16.674,0,0,0,5.558-3.726A16.841,16.841,0,0,0,15.376,6.1C15.741,5.183,16.474,2.966,15.558,2.044Zm-4.9,8.611c-3.294,3.294-6.982,4.185-7.616,3.882L1.43,12.684l2.318-1.838.618.939a.523.523,0,0,0,.041.054,1.179,1.179,0,0,0,.875.432c.346.019,1.392.074,4.222-2.754.7-.7,2.826-2.828,2.754-4.222a1.188,1.188,0,0,0-.434-.875.508.508,0,0,0-.054-.039l-.937-.618,1.836-2.318,1.853,1.612c.315.613-.578,4.3-3.87,7.6Z" fill="#111"/>
</svg>
