<svg xmlns="http://www.w3.org/2000/svg" width="28" height="28.004" viewBox="0 0 28 28.004">
  <path id="ddd" d="M27.226,3.577a.467.467,0,0,0-.061-.058L23.821.608a2.28,2.28,0,0,0-1.8-.594,2.637,2.637,0,0,0-1.61.739.915.915,0,0,0-.094.108L17.031,5.007a2.359,2.359,0,0,0,.058,3.267,1.561,1.561,0,0,0,.191.155l1.682,1.12c-.137.58-1.012,2.27-4.078,5.335s-4.755,3.945-5.339,4.078L8.428,17.284a1.33,1.33,0,0,0-.155-.191,2.356,2.356,0,0,0-3.267-.058L.86,20.317l-.108.1a2.475,2.475,0,0,0-.144,3.4l2.911,3.343.058.065A3.3,3.3,0,0,0,5.957,28a14.226,14.226,0,0,0,4.7-1.081,29.179,29.179,0,0,0,9.726-6.52,29.472,29.472,0,0,0,6.52-9.726C27.546,9.07,28.829,5.191,27.226,3.577ZM18.652,18.645C12.888,24.409,6.433,25.969,5.323,25.44L2.5,22.2,6.559,18.98l1.081,1.643a.916.916,0,0,0,.072.094,2.064,2.064,0,0,0,1.531.757c.605.032,2.435.13,7.389-4.82,1.221-1.225,4.946-4.95,4.82-7.389a2.079,2.079,0,0,0-.76-1.531.889.889,0,0,0-.094-.068L18.958,6.585l3.213-4.056,3.242,2.821c.551,1.074-1.012,7.533-6.773,13.3Z" fill="#1d6ccd"/>
</svg>
