<svg xmlns="http://www.w3.org/2000/svg" width="16" height="12.594" viewBox="0 0 16 12.594">
  <path id="Vector-1" d="M15.968,2.836,14.105,8.723a.989.989,0,0,1-.949.69h-7.2A1.031,1.031,0,0,1,5,8.772L2.251,1.395H.661A.7.7,0,0,1,.661,0H2.734a.719.719,0,0,1,.654.47L6.233,8.019h6.622l1.492-4.707H6.137a.7.7,0,1,1,0-1.395H15.3a.708.708,0,0,1,.563.3.7.7,0,0,1,.1.622ZM6.31,10.344a1.146,1.146,0,0,0-.807.327,1.126,1.126,0,0,0,0,1.594,1.138,1.138,0,0,0,1.6,0,1.12,1.12,0,0,0,0-1.594,1.142,1.142,0,0,0-.793-.325Zm6.257,0a1.125,1.125,0,0,0-.8,1.921,1.14,1.14,0,0,0,1.6,0,1.12,1.12,0,0,0,0-1.594,1.15,1.15,0,0,0-.8-.325Z" fill="#111"/>
</svg>
