<svg xmlns="http://www.w3.org/2000/svg" width="36" height="36" viewBox="0 0 36 36">
  <path id="ant-design_twitter-circle-filled" d="M20.25,2.25a18,18,0,1,0,18,18A18,18,0,0,0,20.25,2.25ZM28.9,15.818c.012.189.012.386.012.579A12.71,12.71,0,0,1,9.358,27.088a9.554,9.554,0,0,0,1.077.056,8.952,8.952,0,0,0,5.541-1.9A4.463,4.463,0,0,1,11.8,22.146a4.879,4.879,0,0,0,2.013-.08,4.46,4.46,0,0,1-3.572-4.38V17.63a4.465,4.465,0,0,0,2.013.567,4.465,4.465,0,0,1-1.989-3.712,4.374,4.374,0,0,1,.607-2.25,12.667,12.667,0,0,0,9.2,4.665A4.476,4.476,0,0,1,27.7,12.817a8.814,8.814,0,0,0,2.833-1.073A4.442,4.442,0,0,1,28.567,14.2a8.828,8.828,0,0,0,2.571-.7A9.353,9.353,0,0,1,28.9,15.818Z" transform="translate(-2.25 -2.25)" fill="#8a8a8a"/>
</svg>
