<svg xmlns="http://www.w3.org/2000/svg" width="16" height="14.957" viewBox="0 0 16 14.957">
  <path id="Vector" d="M8.007,9.409A4.7,4.7,0,1,0,4.693,8.023,4.7,4.7,0,0,0,8.007,9.409Zm0-8.017a3.3,3.3,0,1,1-2.33.975A3.313,3.313,0,0,1,8.007,1.392Zm2.169,8.476A.7.7,0,0,0,9.513,10L8.007,11.281,6.5,10a.695.695,0,0,0-.661-.133C4.865,10.18,0,11.851,0,14.262a.695.695,0,0,0,.695.695h14.61A.7.7,0,0,0,16,14.262C16.008,11.847,11.149,10.18,10.176,9.868Zm-8.412,3.7A12.239,12.239,0,0,1,5.9,11.316l1.657,1.41a.695.695,0,0,0,.9,0l1.657-1.41a12.146,12.146,0,0,1,4.136,2.249Z" fill="#111"/>
</svg>
