<svg xmlns="http://www.w3.org/2000/svg" width="62" height="61.608" viewBox="0 0 62 61.608">
  <path id="web" d="M32.4.41H29.456a30.842,30.842,0,0,0,0,61.608H32.4A30.823,30.823,0,0,0,32.4.41ZM52.744,12.758a35.1,35.1,0,0,1-7.116,4.148A37.349,37.349,0,0,0,35.868,3.169,28.331,28.331,0,0,1,52.744,12.758ZM32.291,3.245a35.046,35.046,0,0,1,11.131,14.5,35.2,35.2,0,0,1-11.131,2.036Zm0,19.027a37.077,37.077,0,0,0,11.949-2.207,35.783,35.783,0,0,1,1.789,11H32.291Zm0,11.188h13.7a35.577,35.577,0,0,1-2.321,10.674,37.533,37.533,0,0,0-11.416-1.9ZM25.917,3.283a37.141,37.141,0,0,0-9.513,13.2,34.951,34.951,0,0,1-6.621-4.11A28.54,28.54,0,0,1,25.917,3.245Zm-17.6,10.94a36.15,36.15,0,0,0,7.249,4.49,38.206,38.206,0,0,0-2.112,12.367H2.647a27.988,27.988,0,0,1,5.67-16.9Zm.894,35.2A28.273,28.273,0,0,1,2.723,33.459H13.53a37.463,37.463,0,0,0,2.645,11.93,35.7,35.7,0,0,0-6.964,4Zm1.617,1.769a34.886,34.886,0,0,1,6.3-3.615,37.3,37.3,0,0,0,8.79,11.663,28.541,28.541,0,0,1-15.088-8.086Zm19.027,8.239A35.141,35.141,0,0,1,19.3,46.683a35.561,35.561,0,0,1,10.56-2.112Zm0-17.238a37.657,37.657,0,0,0-11.53,2.3,35.107,35.107,0,0,1-2.454-11.036H29.855Zm0-11.131H15.794a35.579,35.579,0,0,1,1.9-11.416,37.217,37.217,0,0,0,12.139,2.569Zm0-11.207a35.1,35.1,0,0,1-11.283-2.416A34.877,34.877,0,0,1,29.855,3.093Zm2.435,39.328V44.552A35.639,35.639,0,0,1,42.7,46.321,35.2,35.2,0,0,1,32.291,59.183Zm3.6.114a36.852,36.852,0,0,0,9.076-12.158,33.349,33.349,0,0,1,6.773,3.691,28.54,28.54,0,0,1-15.849,8.353ZM53.315,49.023a37.183,37.183,0,0,0-7.439-4.091A37.363,37.363,0,0,0,48.33,33.516H59.48a28.233,28.233,0,0,1-6.165,15.469Zm6.241-17.961H48.406a38.047,38.047,0,0,0-1.9-11.873,36.812,36.812,0,0,0,7.744-4.528,28.2,28.2,0,0,1,5.308,16.363Z" transform="translate(-0.145 -0.41)" fill="#1d6ccd"/>
</svg>
